<mxfile host="app.diagrams.net" modified="2021-09-30T03:47:17.376Z" agent="5.0 (X11; Linux x86_64) AppleWebKit/537.36 (KHTML, like Gecko) Chrome/94.0.4606.61 Safari/537.36" etag="MBh2s48mlNmQaWBVese7" version="15.3.8" type="github">
  <diagram id="xFCB8OKkpwAgWaGjyq3F" name="Page-1">
    <mxGraphModel dx="1422" dy="761" grid="1" gridSize="10" guides="1" tooltips="1" connect="1" arrows="1" fold="1" page="1" pageScale="1" pageWidth="1920" pageHeight="1200" math="0" shadow="0">
      <root>
        <mxCell id="0" />
        <mxCell id="1" parent="0" />
        <mxCell id="sdc91M5Un50adi2z1NiV-1" value="" style="edgeStyle=orthogonalEdgeStyle;rounded=0;orthogonalLoop=1;jettySize=auto;html=1;" edge="1" parent="1" source="sdc91M5Un50adi2z1NiV-2" target="sdc91M5Un50adi2z1NiV-4">
          <mxGeometry relative="1" as="geometry" />
        </mxCell>
        <mxCell id="sdc91M5Un50adi2z1NiV-2" value="广告展示" style="ellipse;whiteSpace=wrap;html=1;" vertex="1" parent="1">
          <mxGeometry x="130" y="160" width="120" height="80" as="geometry" />
        </mxCell>
        <mxCell id="sdc91M5Un50adi2z1NiV-3" value="" style="edgeStyle=orthogonalEdgeStyle;rounded=0;orthogonalLoop=1;jettySize=auto;html=1;" edge="1" parent="1" source="sdc91M5Un50adi2z1NiV-4" target="sdc91M5Un50adi2z1NiV-5">
          <mxGeometry relative="1" as="geometry" />
        </mxCell>
        <mxCell id="sdc91M5Un50adi2z1NiV-4" value="广告投放" style="ellipse;whiteSpace=wrap;html=1;" vertex="1" parent="1">
          <mxGeometry x="330" y="160" width="120" height="80" as="geometry" />
        </mxCell>
        <mxCell id="sdc91M5Un50adi2z1NiV-5" value="广告点击统计" style="ellipse;whiteSpace=wrap;html=1;" vertex="1" parent="1">
          <mxGeometry x="530" y="160" width="120" height="80" as="geometry" />
        </mxCell>
      </root>
    </mxGraphModel>
  </diagram>
</mxfile>
